<mxfile host="app.diagrams.net" modified="2023-07-08T08:57:36.955Z" agent="Mozilla/5.0 (Windows NT 10.0; Win64; x64) AppleWebKit/537.36 (KHTML, like Gecko) Chrome/114.0.0.0 Safari/537.36" version="21.5.0" etag="zBQv1Auer8sl6bWBGcWj" type="github">
  <diagram name="第 1 页" id="p5-XWSsUT_D1iBg4JwX8">
    <mxGraphModel>
      <root>
        <mxCell id="0" />
        <mxCell id="1" parent="0" />
      </root>
    </mxGraphModel>
  </diagram>
</mxfile>
